<svg width="531" height="130" viewBox="0 0 531 130" fill="none" xmlns="http://www.w3.org/2000/svg">
<circle cx="475" cy="66" r="56" fill="#F7F5E8"/>
<path d="M454.578 26.6403C458.427 14.7837 470.271 18.8507 470.776 24.6343C471.28 30.4178 470.776 42.0199 470.776 42.0199C467.508 48.2491 463.878 50.3823 454.578 52.0501C453.518 54.1392 453.596 55.3104 454.578 57.3995C461.548 60.5588 464.969 59.1533 470.776 54.7248V89.496C464.901 85.5831 462.175 85.3613 458.628 89.496C457.695 91.2258 457.679 92.1073 458.628 93.5081C465.35 93.8586 468.245 95.2837 470.776 101.532V109.556C461.252 114.879 457.303 114.065 450.529 106.882C439.776 102.133 435.726 96.4484 435.007 82.8092C426.673 70.9555 424.708 63.9188 435.007 49.3754C436.667 36.2102 439.541 30.2214 454.578 26.6403Z" fill="#123D68"/>
<path d="M495.04 26.6403C491.281 14.7837 479.712 18.8507 479.219 24.6343C478.726 30.4178 479.219 42.0199 479.219 42.0199C482.41 48.2491 485.957 50.3823 495.04 52.0501C496.075 54.1392 495.999 55.3104 495.04 57.3995C488.232 60.5588 484.891 59.1533 479.219 54.7248V89.496C484.957 85.5831 487.62 85.3613 491.085 89.496C491.995 91.2258 492.011 92.1073 491.085 93.5081C484.519 93.8586 481.691 95.2837 479.219 101.532V109.556C488.521 114.879 492.379 114.065 498.995 106.882C509.498 102.133 513.454 96.4484 514.156 82.8092C522.296 70.9555 524.216 63.9188 514.156 49.3754C512.535 36.2102 509.727 30.2214 495.04 26.6403Z" fill="#FF583E"/>
<path d="M14.7543 16.5455V66H4.2983V16.5455H14.7543ZM68.1219 16.5455V66H59.0907L37.5751 34.8736H37.2129V66H26.7569V16.5455H35.933L57.2796 47.6477H57.7143V16.5455H68.1219ZM90.6168 16.5455V66H80.1608V16.5455H90.6168ZM146.254 33.8594H135.678C135.484 32.491 135.09 31.2756 134.494 30.2131C133.899 29.1345 133.134 28.2169 132.2 27.4602C131.267 26.7036 130.188 26.1241 128.965 25.7216C127.757 25.3191 126.445 25.1179 125.028 25.1179C122.469 25.1179 120.239 25.7538 118.34 27.0256C116.44 28.2812 114.967 30.1165 113.921 32.5312C112.874 34.9299 112.351 37.8437 112.351 41.2727C112.351 44.7983 112.874 47.7604 113.921 50.1591C114.983 52.5578 116.464 54.3688 118.364 55.5923C120.263 56.8158 122.461 57.4276 124.956 57.4276C126.357 57.4276 127.653 57.2424 128.844 56.8722C130.051 56.5019 131.122 55.9626 132.055 55.2543C132.989 54.5298 133.762 53.6525 134.374 52.6222C135.001 51.5919 135.436 50.4167 135.678 49.0966L146.254 49.1449C145.981 51.4148 145.296 53.6042 144.202 55.7131C143.123 57.8059 141.666 59.6813 139.831 61.3395C138.012 62.9815 135.839 64.2855 133.311 65.2514C130.8 66.2012 127.958 66.6761 124.787 66.6761C120.376 66.6761 116.432 65.678 112.955 63.6818C109.493 61.6856 106.757 58.7959 104.744 55.0128C102.748 51.2296 101.75 46.6496 101.75 41.2727C101.75 35.8797 102.764 31.2917 104.793 27.5085C106.821 23.7254 109.574 20.8437 113.051 18.8636C116.528 16.8674 120.44 15.8693 124.787 15.8693C127.653 15.8693 130.309 16.2718 132.756 17.0767C135.219 17.8816 137.4 19.0568 139.3 20.6023C141.199 22.1316 142.745 24.0071 143.936 26.2287C145.144 28.4503 145.916 30.9938 146.254 33.8594ZM167.608 16.5455V66H157.152V16.5455H167.608ZM188.135 66H176.93L194.003 16.5455H207.477L224.526 66H213.321L200.933 27.8466H200.547L188.135 66ZM187.435 46.5611H213.901V54.723H187.435V46.5611ZM225.951 25.1662V16.5455H266.568V25.1662H251.427V66H241.092V25.1662H225.951ZM287.113 16.5455V66H276.657V16.5455H287.113ZM308.05 16.5455L320.003 54.1193H320.462L332.439 16.5455H344.03L326.982 66H313.508L296.435 16.5455H308.05ZM355.333 66H344.128L361.201 16.5455H374.675L391.723 66H380.519L368.131 27.8466H367.745L355.333 66ZM354.632 46.5611H381.098V54.723H354.632V46.5611ZM7.78409 84.9091L14.8153 107.011H15.0852L22.1307 84.9091H28.9489L18.9205 114H10.9943L0.951705 84.9091H7.78409ZM40.6009 84.9091V114H34.4503V84.9091H40.6009ZM52.9169 84.9091L59.9482 107.011H60.218L67.2635 84.9091H74.0817L64.0533 114H56.1271L46.0845 84.9091H52.9169ZM79.5831 114V84.9091H99.1854V89.9801H85.7337V96.9119H98.1768V101.983H85.7337V108.929H99.2422V114H79.5831ZM106.075 114V84.9091H117.553C119.75 84.9091 121.625 85.3021 123.178 86.0881C124.74 86.8646 125.929 87.9678 126.743 89.3977C127.567 90.8182 127.979 92.4896 127.979 94.4119C127.979 96.3437 127.562 98.0057 126.729 99.3977C125.895 100.78 124.688 101.841 123.107 102.58C121.535 103.318 119.631 103.688 117.396 103.688H109.712V98.7443H116.402C117.576 98.7443 118.552 98.5833 119.328 98.2614C120.105 97.9394 120.682 97.4564 121.061 96.8125C121.449 96.1686 121.643 95.3684 121.643 94.4119C121.643 93.446 121.449 92.6316 121.061 91.9688C120.682 91.3059 120.1 90.804 119.314 90.4631C118.537 90.1127 117.557 89.9375 116.374 89.9375H112.226V114H106.075ZM121.786 100.761L129.016 114H122.226L115.152 100.761H121.786ZM154.39 114.426C152.382 114.426 150.649 114.066 149.191 113.347C147.733 112.627 146.611 111.652 145.825 110.42C145.048 109.18 144.66 107.797 144.66 106.273C144.66 105.136 144.887 104.128 145.342 103.247C145.796 102.366 146.431 101.557 147.245 100.818C148.059 100.07 149.006 99.3267 150.086 98.5881L155.725 94.8807C156.454 94.4167 156.989 93.929 157.33 93.4176C157.671 92.8968 157.842 92.3333 157.842 91.7273C157.842 91.1496 157.61 90.6146 157.146 90.1222C156.682 89.6297 156.023 89.3883 155.171 89.3977C154.603 89.3977 154.111 89.5256 153.694 89.7812C153.277 90.0275 152.951 90.3542 152.714 90.7614C152.487 91.1591 152.373 91.6042 152.373 92.0966C152.373 92.7027 152.543 93.3182 152.884 93.9432C153.225 94.5682 153.68 95.2311 154.248 95.9318C154.816 96.6231 155.436 97.3712 156.109 98.1761L169.901 114H163.594L152.089 101.188C151.331 100.326 150.574 99.4261 149.816 98.4886C149.068 97.5417 148.443 96.5379 147.941 95.4773C147.439 94.4072 147.188 93.2472 147.188 91.9972C147.188 90.5862 147.515 89.3172 148.168 88.1903C148.831 87.0634 149.759 86.1733 150.952 85.5199C152.146 84.857 153.538 84.5256 155.129 84.5256C156.682 84.5256 158.022 84.8428 159.148 85.4773C160.285 86.1023 161.156 86.9356 161.762 87.9773C162.378 89.0095 162.685 90.1458 162.685 91.3864C162.685 92.7595 162.344 94.0047 161.663 95.1222C160.99 96.2301 160.043 97.2244 158.822 98.1051L152.884 102.381C152.079 102.968 151.483 103.569 151.094 104.185C150.716 104.791 150.526 105.373 150.526 105.932C150.526 106.623 150.697 107.243 151.038 107.793C151.379 108.342 151.862 108.777 152.487 109.099C153.112 109.412 153.845 109.568 154.688 109.568C155.711 109.568 156.719 109.336 157.714 108.872C158.718 108.399 159.627 107.731 160.441 106.869C161.265 105.998 161.923 104.966 162.415 103.773C162.908 102.58 163.154 101.259 163.154 99.8097H168.168C168.168 101.59 167.974 103.195 167.586 104.625C167.198 106.045 166.658 107.286 165.967 108.347C165.275 109.398 164.485 110.259 163.594 110.932C163.31 111.112 163.036 111.282 162.771 111.443C162.505 111.604 162.231 111.775 161.947 111.955C160.867 112.826 159.66 113.455 158.325 113.844C156.999 114.232 155.687 114.426 154.39 114.426ZM211.462 95.0938H205.24C205.126 94.2888 204.894 93.5739 204.544 92.9489C204.194 92.3144 203.744 91.7746 203.195 91.3295C202.645 90.8845 202.011 90.5436 201.291 90.3068C200.581 90.0701 199.809 89.9517 198.976 89.9517C197.47 89.9517 196.159 90.3258 195.041 91.0739C193.924 91.8125 193.057 92.892 192.442 94.3125C191.826 95.7235 191.518 97.4375 191.518 99.4545C191.518 101.528 191.826 103.271 192.442 104.682C193.067 106.093 193.938 107.158 195.055 107.878C196.173 108.598 197.465 108.957 198.933 108.957C199.757 108.957 200.519 108.848 201.22 108.631C201.93 108.413 202.56 108.096 203.109 107.679C203.659 107.253 204.113 106.737 204.473 106.131C204.842 105.525 205.098 104.833 205.24 104.057L211.462 104.085C211.301 105.42 210.898 106.708 210.254 107.949C209.62 109.18 208.763 110.283 207.683 111.259C206.613 112.224 205.335 112.991 203.848 113.56C202.371 114.118 200.699 114.398 198.834 114.398C196.239 114.398 193.919 113.811 191.874 112.636C189.838 111.462 188.228 109.762 187.044 107.537C185.87 105.312 185.283 102.617 185.283 99.4545C185.283 96.2822 185.879 93.5833 187.072 91.358C188.266 89.1326 189.885 87.4375 191.93 86.2727C193.976 85.0985 196.277 84.5114 198.834 84.5114C200.519 84.5114 202.082 84.7481 203.521 85.2216C204.97 85.6951 206.253 86.3864 207.371 87.2955C208.488 88.1951 209.397 89.2983 210.098 90.6051C210.808 91.9119 211.263 93.4081 211.462 95.0938ZM217.872 114V84.9091H229.349C231.546 84.9091 233.421 85.3021 234.974 86.0881C236.537 86.8646 237.725 87.9678 238.54 89.3977C239.364 90.8182 239.776 92.4896 239.776 94.4119C239.776 96.3437 239.359 98.0057 238.526 99.3977C237.692 100.78 236.485 101.841 234.903 102.58C233.331 103.318 231.428 103.688 229.193 103.688H221.509V98.7443H228.199C229.373 98.7443 230.348 98.5833 231.125 98.2614C231.902 97.9394 232.479 97.4564 232.858 96.8125C233.246 96.1686 233.44 95.3684 233.44 94.4119C233.44 93.446 233.246 92.6316 232.858 91.9688C232.479 91.3059 231.897 90.804 231.111 90.4631C230.334 90.1127 229.354 89.9375 228.17 89.9375H224.023V114H217.872ZM233.582 100.761L240.812 114H234.023L226.949 100.761H233.582ZM246.122 114V84.9091H265.724V89.9801H252.273V96.9119H264.716V101.983H252.273V108.929H265.781V114H246.122ZM288.396 93.2756C288.282 92.1297 287.794 91.2396 286.933 90.6051C286.071 89.9706 284.901 89.6534 283.424 89.6534C282.42 89.6534 281.573 89.7955 280.881 90.0795C280.19 90.3542 279.66 90.7377 279.29 91.2301C278.931 91.7225 278.751 92.2812 278.751 92.9062C278.732 93.4271 278.841 93.8816 279.077 94.2699C279.324 94.6581 279.66 94.9943 280.086 95.2784C280.512 95.553 281.004 95.7945 281.563 96.0028C282.122 96.2017 282.719 96.3722 283.353 96.5142L285.967 97.1392C287.236 97.4233 288.4 97.8021 289.461 98.2756C290.522 98.7491 291.44 99.3314 292.217 100.023C292.993 100.714 293.594 101.528 294.021 102.466C294.456 103.403 294.679 104.478 294.688 105.69C294.679 107.471 294.224 109.014 293.325 110.321C292.434 111.618 291.147 112.627 289.461 113.347C287.785 114.057 285.763 114.412 283.396 114.412C281.047 114.412 279.002 114.052 277.259 113.332C275.526 112.613 274.172 111.547 273.197 110.136C272.231 108.716 271.724 106.959 271.677 104.866H277.629C277.695 105.842 277.974 106.656 278.467 107.31C278.969 107.954 279.636 108.441 280.469 108.773C281.312 109.095 282.264 109.256 283.325 109.256C284.366 109.256 285.271 109.104 286.038 108.801C286.814 108.498 287.415 108.077 287.842 107.537C288.268 106.997 288.481 106.377 288.481 105.676C288.481 105.023 288.287 104.473 287.898 104.028C287.52 103.583 286.961 103.205 286.222 102.892C285.493 102.58 284.598 102.295 283.538 102.04L280.37 101.244C277.917 100.648 275.981 99.715 274.56 98.446C273.14 97.1771 272.434 95.4678 272.444 93.3182C272.434 91.5568 272.903 90.018 273.85 88.7017C274.807 87.3854 276.118 86.358 277.785 85.6193C279.451 84.8807 281.345 84.5114 283.467 84.5114C285.626 84.5114 287.51 84.8807 289.12 85.6193C290.739 86.358 291.999 87.3854 292.898 88.7017C293.798 90.018 294.262 91.5426 294.29 93.2756H288.396ZM326.493 95.0938H320.271C320.158 94.2888 319.926 93.5739 319.575 92.9489C319.225 92.3144 318.775 91.7746 318.226 91.3295C317.677 90.8845 317.042 90.5436 316.322 90.3068C315.612 90.0701 314.84 89.9517 314.007 89.9517C312.501 89.9517 311.19 90.3258 310.072 91.0739C308.955 91.8125 308.089 92.892 307.473 94.3125C306.857 95.7235 306.55 97.4375 306.55 99.4545C306.55 101.528 306.857 103.271 307.473 104.682C308.098 106.093 308.969 107.158 310.087 107.878C311.204 108.598 312.497 108.957 313.964 108.957C314.788 108.957 315.551 108.848 316.251 108.631C316.962 108.413 317.591 108.096 318.141 107.679C318.69 107.253 319.144 106.737 319.504 106.131C319.874 105.525 320.129 104.833 320.271 104.057L326.493 104.085C326.332 105.42 325.929 106.708 325.286 107.949C324.651 109.18 323.794 110.283 322.714 111.259C321.644 112.224 320.366 112.991 318.879 113.56C317.402 114.118 315.731 114.398 313.865 114.398C311.27 114.398 308.95 113.811 306.905 112.636C304.869 111.462 303.259 109.762 302.075 107.537C300.901 105.312 300.314 102.617 300.314 99.4545C300.314 96.2822 300.911 93.5833 302.104 91.358C303.297 89.1326 304.916 87.4375 306.962 86.2727C309.007 85.0985 311.308 84.5114 313.865 84.5114C315.551 84.5114 317.113 84.7481 318.553 85.2216C320.001 85.6951 321.285 86.3864 322.402 87.2955C323.519 88.1951 324.429 89.2983 325.129 90.6051C325.839 91.9119 326.294 93.4081 326.493 95.0938ZM332.903 114V84.9091H352.506V89.9801H339.054V96.9119H351.497V101.983H339.054V108.929H352.562V114H332.903ZM359.396 114V84.9091H370.873C373.07 84.9091 374.945 85.3021 376.498 86.0881C378.06 86.8646 379.249 87.9678 380.063 89.3977C380.887 90.8182 381.299 92.4896 381.299 94.4119C381.299 96.3437 380.882 98.0057 380.049 99.3977C379.216 100.78 378.008 101.841 376.427 102.58C374.855 103.318 372.951 103.688 370.717 103.688H363.032V98.7443H369.722C370.897 98.7443 371.872 98.5833 372.648 98.2614C373.425 97.9394 374.003 97.4564 374.381 96.8125C374.77 96.1686 374.964 95.3684 374.964 94.4119C374.964 93.446 374.77 92.6316 374.381 91.9688C374.003 91.3059 373.42 90.804 372.634 90.4631C371.858 90.1127 370.878 89.9375 369.694 89.9375H365.546V114H359.396ZM375.106 100.761L382.336 114H375.546L368.472 100.761H375.106Z" fill="#F7F5E8"/>
</svg>
