<svg width="246" height="84" viewBox="0 0 246 84" fill="none" xmlns="http://www.w3.org/2000/svg">
<circle cx="204" cy="42" r="42" fill="#F7F5E8"/>
<path d="M188.691 12.713C191.542 3.84731 200.317 6.88836 200.691 11.213C201.065 15.5376 200.691 24.213 200.691 24.213C198.27 28.8709 195.58 30.466 188.691 31.713C187.905 33.2751 187.963 34.1509 188.691 35.713C193.855 38.0753 196.389 37.0244 200.691 33.713V59.713C196.339 56.7871 194.319 56.6212 191.691 59.713C191 61.0064 190.988 61.6655 191.691 62.713C196.671 62.9751 198.816 64.0407 200.691 68.713V74.713C193.635 78.693 190.709 78.084 185.691 72.713C177.724 69.162 174.724 64.9116 174.191 54.713C168.017 45.8494 166.561 40.5877 174.191 29.713C175.421 19.8688 177.551 15.3908 188.691 12.713Z" fill="#123D68"/>
<path d="M219.166 12.713C216.315 3.84731 207.54 6.88836 207.166 11.213C206.792 15.5376 207.166 24.213 207.166 24.213C209.587 28.8709 212.277 30.466 219.166 31.713C219.952 33.2751 219.894 34.1509 219.166 35.713C214.002 38.0753 211.468 37.0244 207.166 33.713V59.713C211.518 56.7871 213.538 56.6212 216.166 59.713C216.857 61.0064 216.869 61.6655 216.166 62.713C211.186 62.9751 209.041 64.0407 207.166 68.713V74.713C214.222 78.693 217.148 78.084 222.166 72.713C230.133 69.162 233.133 64.9116 233.666 54.713C239.841 45.8494 241.296 40.5877 233.666 29.713C232.436 19.8688 230.307 15.3908 219.166 12.713Z" fill="#FF583E"/>
<path d="M26.724 68H2.448V65.28C3.98933 65.2347 5.21333 65.0987 6.12 64.872C7.072 64.6 7.79733 64.124 8.296 63.444C8.79467 62.764 9.13467 61.812 9.316 60.588C9.49733 59.3187 9.588 57.6187 9.588 55.488V28.152C9.588 26.248 9.49733 24.684 9.316 23.46C9.18 22.1907 8.88533 21.1933 8.432 20.468C7.97867 19.7427 7.32133 19.244 6.46 18.972C5.644 18.6547 4.53333 18.4507 3.128 18.36V15.64H26.044V18.36C24.6387 18.4507 23.5053 18.6547 22.644 18.972C21.828 19.244 21.1933 19.7427 20.74 20.468C20.2867 21.1933 19.9693 22.1907 19.788 23.46C19.652 24.684 19.584 26.248 19.584 28.152V55.488C19.584 57.6187 19.652 59.3187 19.788 60.588C19.9693 61.812 20.3093 62.764 20.808 63.444C21.352 64.124 22.0773 64.6 22.984 64.872C23.936 65.0987 25.1827 65.2347 26.724 65.28V68ZM62.3363 56.304L71.1763 33.66C72.0377 31.4387 72.7177 29.6253 73.2163 28.22C73.7603 26.8147 74.1683 25.6587 74.4403 24.752C74.7123 23.8453 74.8937 23.12 74.9843 22.576C75.075 22.032 75.1203 21.5107 75.1203 21.012C75.1203 19.924 74.7123 19.2213 73.8963 18.904C73.0803 18.5413 71.4483 18.36 69.0003 18.36V15.64H88.3123V18.36C84.5497 18.36 81.943 20.196 80.4923 23.868L62.6083 68.68H57.5763L41.3243 28.968C40.4177 26.8373 39.6017 25.092 38.8763 23.732C38.151 22.372 37.3803 21.3067 36.5643 20.536C35.7483 19.72 34.8417 19.176 33.8443 18.904C32.8923 18.5867 31.759 18.428 30.4443 18.428V15.64H56.1483V18.428C54.9697 18.4733 53.9723 18.5413 53.1563 18.632C52.3857 18.7227 51.7737 18.8813 51.3203 19.108C50.867 19.2893 50.5497 19.5613 50.3683 19.924C50.187 20.2413 50.0963 20.6493 50.0963 21.148C50.0963 21.7827 50.2097 22.5307 50.4363 23.392C50.663 24.2533 51.003 25.296 51.4563 26.52L62.3363 56.304ZM136.423 15.64H139.755L138.395 32.844H135.675C134.723 28.6733 132.864 25.3867 130.099 22.984C127.379 20.5813 124.07 19.38 120.171 19.38C117.496 19.38 115.116 19.924 113.031 21.012C110.946 22.0547 109.178 23.5733 107.727 25.568C106.322 27.5173 105.234 29.92 104.463 32.776C103.738 35.5867 103.375 38.76 103.375 42.296C103.375 49.3227 104.803 54.74 107.659 58.548C110.56 62.3107 114.822 64.192 120.443 64.192C124.976 64.192 128.716 62.968 131.663 60.52C134.655 58.072 136.786 54.4227 138.055 49.572H141.047V68H137.851L136.899 62.628C131.912 66.6627 125.86 68.68 118.743 68.68C114.618 68.68 110.878 68.068 107.523 66.844C104.168 65.62 101.312 63.8973 98.9549 61.676C96.5975 59.4093 94.7615 56.6667 93.4469 53.448C92.1775 50.2293 91.5429 46.648 91.5429 42.704C91.5429 38.5787 92.2229 34.816 93.5829 31.416C94.9429 28.016 96.8469 25.092 99.2949 22.644C101.788 20.196 104.735 18.3147 108.135 17C111.58 15.64 115.388 14.96 119.559 14.96C122.324 14.96 124.908 15.3453 127.311 16.116C129.714 16.8867 132.32 18.1333 135.131 19.856L136.423 15.64Z" fill="#F7F5E8"/>
</svg>
