<svg width="239" height="76" viewBox="0 0 239 76" fill="none" xmlns="http://www.w3.org/2000/svg">
<path d="M188.691 10.713C191.542 1.84731 200.317 4.88836 200.691 9.21298C201.065 13.5376 200.691 22.213 200.691 22.213C198.27 26.8709 195.58 28.466 188.691 29.713C187.905 31.2751 187.963 32.1509 188.691 33.713C193.855 36.0753 196.389 35.0244 200.691 31.713V57.713C196.339 54.7871 194.319 54.6212 191.691 57.713C191 59.0064 190.988 59.6655 191.691 60.713C196.671 60.9751 198.816 62.0407 200.691 66.713V72.713C193.635 76.693 190.709 76.084 185.691 70.713C177.724 67.162 174.724 62.9116 174.191 52.713C168.017 43.8494 166.561 38.5877 174.191 27.713C175.421 17.8688 177.551 13.3908 188.691 10.713Z" fill="#123D68"/>
<path d="M219.166 10.713C216.315 1.84731 207.54 4.88836 207.166 9.21298C206.792 13.5376 207.166 22.213 207.166 22.213C209.587 26.8709 212.277 28.466 219.166 29.713C219.952 31.2751 219.894 32.1509 219.166 33.713C214.002 36.0753 211.468 35.0244 207.166 31.713V57.713C211.518 54.7871 213.538 54.6212 216.166 57.713C216.857 59.0064 216.869 59.6655 216.166 60.713C211.186 60.9751 209.041 62.0407 207.166 66.713V72.713C214.222 76.693 217.148 76.084 222.166 70.713C230.133 67.162 233.133 62.9116 233.666 52.713C239.841 43.8494 241.296 38.5877 233.666 27.713C232.436 17.8688 230.307 13.3908 219.166 10.713Z" fill="#FF583E"/>
<path d="M26.724 66H2.448V63.28C3.98933 63.2347 5.21333 63.0987 6.12 62.872C7.072 62.6 7.79733 62.124 8.296 61.444C8.79467 60.764 9.13467 59.812 9.316 58.588C9.49733 57.3187 9.588 55.6187 9.588 53.488V26.152C9.588 24.248 9.49733 22.684 9.316 21.46C9.18 20.1907 8.88533 19.1933 8.432 18.468C7.97867 17.7427 7.32133 17.244 6.46 16.972C5.644 16.6547 4.53333 16.4507 3.128 16.36V13.64H26.044V16.36C24.6387 16.4507 23.5053 16.6547 22.644 16.972C21.828 17.244 21.1933 17.7427 20.74 18.468C20.2867 19.1933 19.9693 20.1907 19.788 21.46C19.652 22.684 19.584 24.248 19.584 26.152V53.488C19.584 55.6187 19.652 57.3187 19.788 58.588C19.9693 59.812 20.3093 60.764 20.808 61.444C21.352 62.124 22.0773 62.6 22.984 62.872C23.936 63.0987 25.1827 63.2347 26.724 63.28V66ZM62.3363 54.304L71.1763 31.66C72.0377 29.4387 72.7177 27.6253 73.2163 26.22C73.7603 24.8147 74.1683 23.6587 74.4403 22.752C74.7123 21.8453 74.8937 21.12 74.9843 20.576C75.075 20.032 75.1203 19.5107 75.1203 19.012C75.1203 17.924 74.7123 17.2213 73.8963 16.904C73.0803 16.5413 71.4483 16.36 69.0003 16.36V13.64H88.3123V16.36C84.5497 16.36 81.943 18.196 80.4923 21.868L62.6083 66.68H57.5763L41.3243 26.968C40.4177 24.8373 39.6017 23.092 38.8763 21.732C38.151 20.372 37.3803 19.3067 36.5643 18.536C35.7483 17.72 34.8417 17.176 33.8443 16.904C32.8923 16.5867 31.759 16.428 30.4443 16.428V13.64H56.1483V16.428C54.9697 16.4733 53.9723 16.5413 53.1563 16.632C52.3857 16.7227 51.7737 16.8813 51.3203 17.108C50.867 17.2893 50.5497 17.5613 50.3683 17.924C50.187 18.2413 50.0963 18.6493 50.0963 19.148C50.0963 19.7827 50.2097 20.5307 50.4363 21.392C50.663 22.2533 51.003 23.296 51.4563 24.52L62.3363 54.304ZM136.423 13.64H139.755L138.395 30.844H135.675C134.723 26.6733 132.864 23.3867 130.099 20.984C127.379 18.5813 124.07 17.38 120.171 17.38C117.496 17.38 115.116 17.924 113.031 19.012C110.946 20.0547 109.178 21.5733 107.727 23.568C106.322 25.5173 105.234 27.92 104.463 30.776C103.738 33.5867 103.375 36.76 103.375 40.296C103.375 47.3227 104.803 52.74 107.659 56.548C110.56 60.3107 114.822 62.192 120.443 62.192C124.976 62.192 128.716 60.968 131.663 58.52C134.655 56.072 136.786 52.4227 138.055 47.572H141.047V66H137.851L136.899 60.628C131.912 64.6627 125.86 66.68 118.743 66.68C114.618 66.68 110.878 66.068 107.523 64.844C104.168 63.62 101.312 61.8973 98.9549 59.676C96.5975 57.4093 94.7615 54.6667 93.4469 51.448C92.1775 48.2293 91.5429 44.648 91.5429 40.704C91.5429 36.5787 92.2229 32.816 93.5829 29.416C94.9429 26.016 96.8469 23.092 99.2949 20.644C101.788 18.196 104.735 16.3147 108.135 15C111.58 13.64 115.388 12.96 119.559 12.96C122.324 12.96 124.908 13.3453 127.311 14.116C129.714 14.8867 132.32 16.1333 135.131 17.856L136.423 13.64Z" fill="#2B2B2B"/>
</svg>
