<svg width="87" height="87" viewBox="0 0 87 87" fill="none" xmlns="http://www.w3.org/2000/svg">
<path d="M76.2897 37.1917H68.8424C69.4478 39.3714 69.7506 41.5511 69.7506 43.7308C69.7506 47.3637 69.0543 50.8149 67.6617 54.0844C66.2691 57.354 64.3619 60.1997 61.94 62.6216C59.5181 65.0435 56.6723 66.9507 53.4028 68.3433C50.1332 69.7359 46.682 70.4322 43.0492 70.4322C39.4163 70.4322 35.9954 69.7359 32.7864 68.3433C29.5774 66.9507 26.7619 65.0435 24.34 62.6216C21.9181 60.1997 20.0109 57.354 18.6183 54.0844C17.2257 50.8149 16.5294 47.3637 16.5294 43.7308C16.5294 41.5511 16.8322 39.3714 17.4376 37.1917H9.80867V73.7018C9.80867 74.6705 10.1417 75.4576 10.8077 76.0631C11.4737 76.6686 12.2911 76.9713 13.2599 76.9713H73.0201C73.9889 76.9713 74.776 76.6686 75.3815 76.0631C75.9869 75.4576 76.2897 74.6705 76.2897 73.7018V37.1917ZM76.2897 13.9415C76.2897 12.9728 75.9869 12.1554 75.3815 11.4893C74.776 10.8233 73.9889 10.4903 73.0201 10.4903H63.0298C62.0611 10.4903 61.2739 10.8233 60.6685 11.4893C60.063 12.1554 59.7603 12.9728 59.7603 13.9415V23.7502C59.7603 24.7189 60.063 25.5363 60.6685 26.2024C61.2739 26.8684 62.0611 27.2014 63.0298 27.2014H73.0201C73.9889 27.2014 74.776 26.8684 75.3815 26.2024C75.9869 25.5363 76.2897 24.7189 76.2897 23.7502V13.9415ZM43.0492 27.2014C38.4476 27.2014 34.5423 28.8059 31.3333 32.0149C28.1243 35.2239 26.5197 39.1292 26.5197 43.7308C26.5197 46.0316 26.9436 48.2113 27.7912 50.2699C28.6389 52.3285 29.8196 54.1147 31.3333 55.6284C32.8469 57.1421 34.6028 58.3227 36.6009 59.1704C38.5989 60.0181 40.7484 60.4419 43.0492 60.4419C45.35 60.4419 47.5297 60.0181 49.5883 59.1704C51.6469 58.3227 53.4331 57.1421 54.9467 55.6284C56.4604 54.1147 57.6411 52.3285 58.4888 50.2699C59.3364 48.2113 59.7603 46.0316 59.7603 43.7308C59.7603 41.43 59.3364 39.2806 58.4888 37.2825C57.6411 35.2845 56.4604 33.5286 54.9467 32.0149C53.4331 30.5012 51.6469 29.3205 49.5883 28.4729C47.5297 27.6252 45.35 27.2014 43.0492 27.2014ZM9.80867 86.9616C7.02349 86.9616 4.69242 85.9929 2.81545 84.0554C0.938484 82.1179 0 79.7565 0 76.9713V10.4903C0 7.70514 0.938484 5.34379 2.81545 3.40627C4.69242 1.46876 7.02349 0.5 9.80867 0.5H76.2897C79.0749 0.5 81.4362 1.46876 83.3737 3.40627C85.3112 5.34379 86.28 7.70514 86.28 10.4903V76.9713C86.28 79.7565 85.3112 82.1179 83.3737 84.0554C81.4362 85.9929 79.0749 86.9616 76.2897 86.9616H9.80867Z" fill="white"/>
</svg>
