<svg width="104" height="84" viewBox="0 0 104 84" fill="none" xmlns="http://www.w3.org/2000/svg">
<path d="M103.385 10.005C100.328 14.4516 96.7841 18.0645 92.7543 20.8437V23.7618C92.7543 30.7097 91.4342 37.7618 88.794 44.9181C86.1538 52.0744 82.2978 58.536 77.2258 64.3027C72.1538 70.0695 65.866 74.794 58.3623 78.4764C50.8586 82.1588 42.2432 84 32.5161 84C26.402 84 20.6352 83.1663 15.2159 81.4988C9.79653 79.8313 4.72457 77.469 0 74.4119C0.833747 74.5509 1.66749 74.6551 2.50124 74.7246C3.33499 74.794 4.16873 74.8288 5.00248 74.8288C10.005 74.8288 14.7643 73.995 19.2804 72.3275C23.7965 70.6601 27.861 68.4367 31.4739 65.6576C26.7494 65.5186 22.6154 64.0943 19.072 61.3846C15.5285 58.6749 13.062 55.1663 11.6725 50.8586C12.3672 51.1365 13.0273 51.2754 13.6526 51.2754H15.6328C17.5782 51.2754 19.3846 51.067 21.0521 50.6501C16.1886 49.5385 12.1588 47.072 8.96278 43.2506C5.76675 39.4293 4.16873 34.9479 4.16873 29.8065V29.598C5.69727 30.2928 7.22581 30.8834 8.75434 31.3697C10.2829 31.8561 11.9504 32.0993 13.7568 32.0993C10.9777 30.1538 8.7196 27.6526 6.98263 24.5955C5.24566 21.5385 4.37717 18.2035 4.37717 14.5906C4.37717 10.6998 5.34988 7.15633 7.29528 3.9603C12.5757 10.3524 18.9677 15.5285 26.4715 19.4888C33.9752 23.4491 42.1042 25.6377 50.8586 26.0546C50.4417 24.3871 50.2332 22.7891 50.2332 21.2605C50.2332 18.3424 50.7891 15.598 51.9007 13.0273C53.0124 10.4566 54.5409 8.19851 56.4863 6.2531C58.4318 4.30769 60.6898 2.77916 63.2605 1.66749C65.8313 0.555831 68.5757 0 71.4938 0C74.5509 0 77.3995 0.590571 80.0397 1.77171C82.6799 2.95285 84.9727 4.58561 86.9181 6.66998C89.4193 6.2531 91.7816 5.59305 94.005 4.68983C96.2283 3.7866 98.3821 2.70968 100.466 1.45906C98.799 6.6005 95.6725 10.5608 91.0868 13.34C95.5335 12.6452 99.6327 11.5335 103.385 10.005Z" fill="white"/>
</svg>
