<svg width="22" height="22" viewBox="0 0 22 22" fill="none" xmlns="http://www.w3.org/2000/svg">
<mask id="mask0_77_16" style="mask-type:luminance" maskUnits="userSpaceOnUse" x="0" y="0" width="22" height="22">
<path d="M0.851562 0.410461H21.9904V21.5493H0.851562V0.410461Z" fill="white"/>
</mask>
<g mask="url(#mask0_77_16)">
<path d="M9.15613 20.7944V12.8673C9.15613 12.3668 9.35498 11.8867 9.70894 11.5327C10.0629 11.1788 10.543 10.9799 11.0435 10.9799C11.5441 10.9799 12.0242 11.1788 12.3781 11.5327C12.7321 11.8867 12.9309 12.3668 12.9309 12.8673V17.0196H15.9508C16.7516 17.0196 17.5197 17.3378 18.0861 17.9041C18.6525 18.4705 18.9706 19.2386 18.9706 20.0395V20.7944" stroke="#000001" stroke-width="1.50992" stroke-linecap="round" stroke-linejoin="round"/>
<path d="M5.97025 13.4108C4.96774 12.4076 4.28519 11.1296 4.00889 9.73852C3.73258 8.34741 3.87492 6.9056 4.41791 5.59538C4.96091 4.28515 5.88018 3.16533 7.05952 2.37749C8.23886 1.58964 9.6253 1.16913 11.0436 1.16913C12.4619 1.16913 13.8483 1.58964 15.0276 2.37749C16.2071 3.16533 17.1263 4.28515 17.6693 5.59538C18.2122 6.9056 18.3546 8.34741 18.0783 9.73852C17.802 11.1296 17.1193 12.4076 16.1169 13.4108" stroke="#000001" stroke-width="1.50992" stroke-linecap="round" stroke-linejoin="round"/>
</g>
</svg>
