<svg width="87" height="88" viewBox="0 0 87 88" fill="none" xmlns="http://www.w3.org/2000/svg">
<path fill-rule="evenodd" clip-rule="evenodd" d="M74.324 12.705C66.1451 4.51647 55.2689 0.00482529 43.6834 0C19.8078 0 0.371548 19.4314 0.361897 43.3166C0.361897 50.9502 2.35474 58.4005 6.14259 64.9725L0 87.415L22.9636 81.3882C29.2943 84.8383 36.4165 86.6574 43.6641 86.6622H43.6834C67.5541 86.6622 86.9904 67.2308 87 43.3456C87 31.7745 82.5028 20.8935 74.324 12.705ZM43.6834 79.3519H43.6689C37.2078 79.3471 30.8722 77.6148 25.3424 74.3288L24.03 73.5471L10.4033 77.1226L14.0368 63.8386L13.1827 62.4779C9.5782 56.7454 7.67704 50.1203 7.67704 43.3166C7.68669 23.4654 23.8369 7.31514 43.6978 7.31514C53.3146 7.31996 62.3524 11.0692 69.1512 17.8729C75.9453 24.6814 79.6897 33.724 79.6849 43.3456C79.6752 63.1968 63.525 79.3519 43.6834 79.3519ZM63.4333 52.3834C62.3476 51.8381 57.0301 49.2228 56.0361 48.8609C55.0469 48.499 54.328 48.3205 53.6042 49.4013C52.8804 50.4822 50.8055 52.919 50.1734 53.6428C49.5413 54.3665 48.9091 54.4534 47.8283 53.913C46.7474 53.3725 43.2587 52.2289 39.1235 48.5424C35.905 45.6714 33.7336 42.1296 33.1015 41.0439C32.4694 39.9582 33.0339 39.3744 33.5792 38.8339C34.0666 38.3514 34.6601 37.5697 35.2005 36.9376C35.7409 36.3055 35.9195 35.8567 36.2814 35.1329C36.6433 34.4091 36.4647 33.777 36.1897 33.2366C35.9195 32.6913 33.7529 27.3642 32.8506 25.1977C31.9772 23.0987 31.0845 23.3785 30.4186 23.3496C29.7913 23.3206 29.0676 23.311 28.3486 23.311C27.6248 23.311 26.4522 23.5812 25.4582 24.6621C24.4642 25.7478 21.6704 28.3631 21.6704 33.6902C21.6704 39.0173 25.5499 44.1659 26.0903 44.8897C26.6308 45.6135 33.724 56.5428 44.5809 61.2329C47.1672 62.3476 49.1842 63.0135 50.7524 63.5153C53.3436 64.3404 55.7032 64.2198 57.5705 63.9448C59.6502 63.6359 63.9737 61.3294 64.876 58.801C65.7784 56.2725 65.7784 54.106 65.5082 53.6524C65.2379 53.1988 64.5093 52.9238 63.4333 52.3834Z" fill="black"/>
</svg>
