<svg width="298" height="136" viewBox="0 0 298 136" fill="none" xmlns="http://www.w3.org/2000/svg">
<path d="M142.464 44.656V97.648C142.464 100.464 143.424 102.32 145.344 103.216C143.36 105.712 140.896 106.96 137.952 106.96C132.704 106.96 130.08 103.76 130.08 97.36V44.368C130.08 41.552 129.12 39.728 127.2 38.896C129.056 36.4 131.488 35.152 134.496 35.152C139.808 35.152 142.464 38.32 142.464 44.656ZM208.785 36.976C210.961 35.696 213.201 35.056 215.505 35.056C217.873 35.056 219.697 35.696 220.977 36.976C222.321 38.192 222.993 39.824 222.993 41.872C222.993 43.92 222.545 45.968 221.649 48.016L201.777 97.264C200.177 101.168 198.705 103.76 197.361 105.04C196.081 106.32 194.033 106.96 191.217 106.96C188.401 106.96 186.417 106.32 185.265 105.04C184.113 103.76 182.833 101.168 181.425 97.264L162.513 45.328C161.425 42.192 159.921 40.144 158.001 39.184C160.497 36.496 163.281 35.152 166.353 35.152C168.465 35.152 170.225 35.824 171.633 37.168C173.105 38.448 174.417 40.752 175.569 44.08L192.369 94.096L208.977 47.92C209.937 44.976 210.417 42.704 210.417 41.104C210.417 39.44 209.873 38.064 208.785 36.976ZM291.083 48.304C291.083 50.672 290.251 52.464 288.587 53.68C286.987 54.832 285.003 55.408 282.635 55.408C280.267 55.408 278.251 54.928 276.587 53.968C276.715 53.136 276.779 52.336 276.779 51.568C276.779 49.2 276.043 47.152 274.571 45.424C273.163 43.632 270.667 42.736 267.082 42.736C262.026 42.736 257.642 45.168 253.931 50.032C250.218 54.896 248.362 61.68 248.362 70.384C248.362 79.088 250.218 85.52 253.931 89.68C257.706 93.776 262.858 95.824 269.387 95.824C273.227 95.824 276.843 94.96 280.234 93.232C283.691 91.504 286.443 89.456 288.491 87.088C289.323 87.28 289.995 87.888 290.507 88.912C291.019 89.936 291.274 90.96 291.274 91.984C291.274 95.312 288.778 98.64 283.786 101.968C278.858 105.296 272.97 106.96 266.123 106.96C256.651 106.96 249.13 103.856 243.562 97.648C237.994 91.44 235.21 82.832 235.21 71.824C235.21 60.816 238.282 51.952 244.426 45.232C250.571 38.512 258.635 35.152 268.618 35.152C274.826 35.152 280.107 36.432 284.459 38.992C288.875 41.552 291.083 44.656 291.083 48.304Z" fill="#2B2B2B"/>
<path d="M35.5784 28.6403C39.4266 16.7837 51.2711 20.8507 51.7757 26.6343C52.2803 32.4178 51.7757 44.0199 51.7757 44.0199C48.5084 50.2491 44.8776 52.3823 35.5784 54.0501C34.518 56.1392 34.5963 57.3104 35.5784 59.3995C42.5483 62.5588 45.969 61.1533 51.7757 56.7248V91.496C45.9013 87.5831 43.175 87.3613 39.6277 91.496C38.6954 93.2258 38.6793 94.1073 39.6277 95.5081C46.3499 95.8586 49.2449 97.2837 51.7757 103.532V111.556C42.2521 116.879 38.3026 116.065 31.5292 108.882C20.7761 104.133 16.7256 98.4484 16.0067 84.8092C7.67264 72.9555 5.70777 65.9188 16.0067 51.3754C17.6669 38.2102 20.5413 32.2214 35.5784 28.6403Z" fill="#123D68"/>
<path d="M76.0397 28.6403C72.281 16.7837 60.7119 20.8507 60.219 26.6343C59.7262 32.4178 60.219 44.0199 60.219 44.0199C63.4104 50.2491 66.9568 52.3823 76.0397 54.0501C77.0755 56.1392 76.9989 57.3104 76.0397 59.3995C69.2319 62.5588 65.8907 61.1533 60.219 56.7248V91.496C65.9569 87.5831 68.6198 87.3613 72.0845 91.496C72.9952 93.2258 73.011 94.1073 72.0845 95.5081C65.5187 95.8586 62.691 97.2837 60.219 103.532V111.556C69.5212 116.879 73.3789 116.065 79.9948 108.882C90.4978 104.133 94.454 98.4484 95.1563 84.8092C103.296 72.9555 105.216 65.9188 95.1563 51.3754C93.5346 38.2102 90.7271 32.2214 76.0397 28.6403Z" fill="#FF583E"/>
</svg>
