<svg width="518" height="103" viewBox="0 0 518 103" fill="none" xmlns="http://www.w3.org/2000/svg">
<path d="M130.032 11.496V45H123.312V11.496H130.032ZM153.327 18.024C156.495 18.024 159.055 19.032 161.007 21.048C162.959 23.032 163.935 25.816 163.935 29.4V45H157.215V30.312C157.215 28.2 156.687 26.584 155.631 25.464C154.575 24.312 153.135 23.736 151.311 23.736C149.455 23.736 147.983 24.312 146.895 25.464C145.839 26.584 145.311 28.2 145.311 30.312V45H138.591V18.408H145.311V21.72C146.207 20.568 147.343 19.672 148.719 19.032C150.127 18.36 151.663 18.024 153.327 18.024ZM175.654 15.24C174.47 15.24 173.478 14.872 172.678 14.136C171.91 13.368 171.526 12.424 171.526 11.304C171.526 10.184 171.91 9.256 172.678 8.52C173.478 7.752 174.47 7.368 175.654 7.368C176.838 7.368 177.814 7.752 178.582 8.52C179.382 9.256 179.782 10.184 179.782 11.304C179.782 12.424 179.382 13.368 178.582 14.136C177.814 14.872 176.838 15.24 175.654 15.24ZM178.966 18.408V45H172.246V18.408H178.966ZM185.797 31.704C185.797 28.952 186.357 26.552 187.477 24.504C188.597 22.424 190.149 20.824 192.133 19.704C194.117 18.552 196.389 17.976 198.949 17.976C202.245 17.976 204.965 18.808 207.109 20.472C209.285 22.104 210.741 24.408 211.477 27.384H204.229C203.845 26.232 203.189 25.336 202.261 24.696C201.365 24.024 200.245 23.688 198.901 23.688C196.981 23.688 195.461 24.392 194.341 25.8C193.221 27.176 192.661 29.144 192.661 31.704C192.661 34.232 193.221 36.2 194.341 37.608C195.461 38.984 196.981 39.672 198.901 39.672C201.621 39.672 203.397 38.456 204.229 36.024H211.477C210.741 38.904 209.285 41.192 207.109 42.888C204.933 44.584 202.213 45.432 198.949 45.432C196.389 45.432 194.117 44.872 192.133 43.752C190.149 42.6 188.597 41 187.477 38.952C186.357 36.872 185.797 34.456 185.797 31.704ZM221.728 15.24C220.544 15.24 219.552 14.872 218.752 14.136C217.984 13.368 217.6 12.424 217.6 11.304C217.6 10.184 217.984 9.256 218.752 8.52C219.552 7.752 220.544 7.368 221.728 7.368C222.912 7.368 223.888 7.752 224.656 8.52C225.456 9.256 225.856 10.184 225.856 11.304C225.856 12.424 225.456 13.368 224.656 14.136C223.888 14.872 222.912 15.24 221.728 15.24ZM225.04 18.408V45H218.32V18.408H225.04ZM231.871 31.608C231.871 28.92 232.399 26.536 233.455 24.456C234.543 22.376 235.999 20.776 237.823 19.656C239.679 18.536 241.743 17.976 244.015 17.976C245.999 17.976 247.727 18.376 249.199 19.176C250.703 19.976 251.903 20.984 252.799 22.2V18.408H259.567V45H252.799V41.112C251.935 42.36 250.735 43.4 249.199 44.232C247.695 45.032 245.951 45.432 243.967 45.432C241.727 45.432 239.679 44.856 237.823 43.704C235.999 42.552 234.543 40.936 233.455 38.856C232.399 36.744 231.871 34.328 231.871 31.608ZM252.799 31.704C252.799 30.072 252.479 28.68 251.839 27.528C251.199 26.344 250.335 25.448 249.247 24.84C248.159 24.2 246.991 23.88 245.743 23.88C244.495 23.88 243.343 24.184 242.287 24.792C241.231 25.4 240.367 26.296 239.695 27.48C239.055 28.632 238.735 30.008 238.735 31.608C238.735 33.208 239.055 34.616 239.695 35.832C240.367 37.016 241.231 37.928 242.287 38.568C243.375 39.208 244.527 39.528 245.743 39.528C246.991 39.528 248.159 39.224 249.247 38.616C250.335 37.976 251.199 37.08 251.839 35.928C252.479 34.744 252.799 33.336 252.799 31.704ZM275.875 23.928V36.792C275.875 37.688 276.083 38.344 276.499 38.76C276.947 39.144 277.683 39.336 278.707 39.336H281.827V45H277.603C271.939 45 269.107 42.248 269.107 36.744V23.928H265.939V18.408H269.107V11.832H275.875V18.408H281.827V23.928H275.875ZM291.988 15.24C290.804 15.24 289.812 14.872 289.012 14.136C288.244 13.368 287.86 12.424 287.86 11.304C287.86 10.184 288.244 9.256 289.012 8.52C289.812 7.752 290.804 7.368 291.988 7.368C293.172 7.368 294.148 7.752 294.916 8.52C295.716 9.256 296.116 10.184 296.116 11.304C296.116 12.424 295.716 13.368 294.916 14.136C294.148 14.872 293.172 15.24 291.988 15.24ZM295.3 18.408V45H288.58V18.408H295.3ZM314.948 38.808L321.668 18.408H328.82L318.98 45H310.82L301.028 18.408H308.228L314.948 38.808ZM332.786 31.608C332.786 28.92 333.314 26.536 334.37 24.456C335.458 22.376 336.914 20.776 338.738 19.656C340.594 18.536 342.658 17.976 344.93 17.976C346.914 17.976 348.642 18.376 350.114 19.176C351.618 19.976 352.818 20.984 353.714 22.2V18.408H360.482V45H353.714V41.112C352.85 42.36 351.65 43.4 350.114 44.232C348.61 45.032 346.866 45.432 344.882 45.432C342.642 45.432 340.594 44.856 338.738 43.704C336.914 42.552 335.458 40.936 334.37 38.856C333.314 36.744 332.786 34.328 332.786 31.608ZM353.714 31.704C353.714 30.072 353.394 28.68 352.754 27.528C352.114 26.344 351.25 25.448 350.162 24.84C349.074 24.2 347.906 23.88 346.658 23.88C345.41 23.88 344.258 24.184 343.202 24.792C342.146 25.4 341.282 26.296 340.61 27.48C339.97 28.632 339.65 30.008 339.65 31.608C339.65 33.208 339.97 34.616 340.61 35.832C341.282 37.016 342.146 37.928 343.202 38.568C344.29 39.208 345.442 39.528 346.658 39.528C347.906 39.528 349.074 39.224 350.162 38.616C351.25 37.976 352.114 37.08 352.754 35.928C353.394 34.744 353.714 33.336 353.714 31.704ZM153.408 61.496L141.12 95H132.96L120.672 61.496H127.872L137.088 88.136L146.256 61.496H153.408ZM162.765 65.24C161.581 65.24 160.589 64.872 159.789 64.136C159.021 63.368 158.637 62.424 158.637 61.304C158.637 60.184 159.021 59.256 159.789 58.52C160.589 57.752 161.581 57.368 162.765 57.368C163.949 57.368 164.925 57.752 165.693 58.52C166.493 59.256 166.893 60.184 166.893 61.304C166.893 62.424 166.493 63.368 165.693 64.136C164.925 64.872 163.949 65.24 162.765 65.24ZM166.077 68.408V95H159.357V68.408H166.077ZM185.724 88.808L192.444 68.408H199.596L189.756 95H181.596L171.804 68.408H179.004L185.724 88.808ZM230.011 81.128C230.011 82.088 229.947 82.952 229.819 83.72H210.379C210.539 85.64 211.211 87.144 212.395 88.232C213.579 89.32 215.035 89.864 216.763 89.864C219.259 89.864 221.035 88.792 222.091 86.648H229.339C228.571 89.208 227.099 91.32 224.923 92.984C222.747 94.616 220.075 95.432 216.907 95.432C214.347 95.432 212.043 94.872 209.995 93.752C207.979 92.6 206.395 90.984 205.243 88.904C204.123 86.824 203.563 84.424 203.563 81.704C203.563 78.952 204.123 76.536 205.243 74.456C206.363 72.376 207.931 70.776 209.947 69.656C211.963 68.536 214.283 67.976 216.907 67.976C219.435 67.976 221.691 68.52 223.675 69.608C225.691 70.696 227.243 72.248 228.331 74.264C229.451 76.248 230.011 78.536 230.011 81.128ZM223.051 79.208C223.019 77.48 222.395 76.104 221.179 75.08C219.963 74.024 218.475 73.496 216.715 73.496C215.051 73.496 213.643 74.008 212.491 75.032C211.371 76.024 210.683 77.416 210.427 79.208H223.051ZM243.556 72.536C244.42 71.128 245.54 70.024 246.916 69.224C248.324 68.424 249.924 68.024 251.716 68.024V75.08H249.94C247.828 75.08 246.228 75.576 245.14 76.568C244.084 77.56 243.556 79.288 243.556 81.752V95H236.836V68.408H243.556V72.536ZM296.24 81.128C296.24 82.088 296.176 82.952 296.048 83.72H276.608C276.768 85.64 277.44 87.144 278.624 88.232C279.808 89.32 281.264 89.864 282.992 89.864C285.488 89.864 287.264 88.792 288.32 86.648H295.568C294.8 89.208 293.328 91.32 291.152 92.984C288.976 94.616 286.304 95.432 283.136 95.432C280.576 95.432 278.272 94.872 276.224 93.752C274.208 92.6 272.624 90.984 271.472 88.904C270.352 86.824 269.792 84.424 269.792 81.704C269.792 78.952 270.352 76.536 271.472 74.456C272.592 72.376 274.16 70.776 276.176 69.656C278.192 68.536 280.512 67.976 283.136 67.976C285.664 67.976 287.92 68.52 289.904 69.608C291.92 70.696 293.472 72.248 294.56 74.264C295.68 76.248 296.24 78.536 296.24 81.128ZM289.28 79.208C289.248 77.48 288.624 76.104 287.408 75.08C286.192 74.024 284.704 73.496 282.944 73.496C281.28 73.496 279.872 74.008 278.72 75.032C277.6 76.024 276.912 77.416 276.656 79.208H289.28ZM314.79 78.2C314.79 74.904 315.526 71.96 316.998 69.368C318.502 66.744 320.534 64.712 323.094 63.272C325.686 61.8 328.582 61.064 331.782 61.064C335.526 61.064 338.806 62.024 341.622 63.944C344.438 65.864 346.406 68.52 347.526 71.912H339.798C339.03 70.312 337.942 69.112 336.534 68.312C335.158 67.512 333.558 67.112 331.734 67.112C329.782 67.112 328.038 67.576 326.502 68.504C324.998 69.4 323.814 70.68 322.95 72.344C322.118 74.008 321.702 75.96 321.702 78.2C321.702 80.408 322.118 82.36 322.95 84.056C323.814 85.72 324.998 87.016 326.502 87.944C328.038 88.84 329.782 89.288 331.734 89.288C333.558 89.288 335.158 88.888 336.534 88.088C337.942 87.256 339.03 86.04 339.798 84.44H347.526C346.406 87.864 344.438 90.536 341.622 92.456C338.838 94.344 335.558 95.288 331.782 95.288C328.582 95.288 325.686 94.568 323.094 93.128C320.534 91.656 318.502 89.624 316.998 87.032C315.526 84.44 314.79 81.496 314.79 78.2ZM361.906 72.536C362.77 71.128 363.89 70.024 365.266 69.224C366.674 68.424 368.274 68.024 370.066 68.024V75.08H368.29C366.178 75.08 364.578 75.576 363.49 76.568C362.434 77.56 361.906 79.288 361.906 81.752V95H355.186V68.408H361.906V72.536ZM401.232 81.128C401.232 82.088 401.168 82.952 401.04 83.72H381.6C381.76 85.64 382.432 87.144 383.616 88.232C384.8 89.32 386.256 89.864 387.984 89.864C390.48 89.864 392.256 88.792 393.312 86.648H400.56C399.792 89.208 398.32 91.32 396.144 92.984C393.968 94.616 391.296 95.432 388.128 95.432C385.568 95.432 383.264 94.872 381.216 93.752C379.2 92.6 377.616 90.984 376.464 88.904C375.344 86.824 374.784 84.424 374.784 81.704C374.784 78.952 375.344 76.536 376.464 74.456C377.584 72.376 379.152 70.776 381.168 69.656C383.184 68.536 385.504 67.976 388.128 67.976C390.656 67.976 392.912 68.52 394.896 69.608C396.912 70.696 398.464 72.248 399.552 74.264C400.672 76.248 401.232 78.536 401.232 81.128ZM394.272 79.208C394.24 77.48 393.616 76.104 392.4 75.08C391.184 74.024 389.696 73.496 387.936 73.496C386.272 73.496 384.864 74.008 383.712 75.032C382.592 76.024 381.904 77.416 381.648 79.208H394.272ZM418.233 95.432C416.057 95.432 414.105 95.048 412.377 94.28C410.649 93.48 409.273 92.408 408.249 91.064C407.257 89.72 406.713 88.232 406.617 86.6H413.385C413.513 87.624 414.009 88.472 414.873 89.144C415.769 89.816 416.873 90.152 418.185 90.152C419.465 90.152 420.457 89.896 421.161 89.384C421.897 88.872 422.265 88.216 422.265 87.416C422.265 86.552 421.817 85.912 420.921 85.496C420.057 85.048 418.665 84.568 416.745 84.056C414.761 83.576 413.129 83.08 411.849 82.568C410.601 82.056 409.513 81.272 408.585 80.216C407.689 79.16 407.241 77.736 407.241 75.944C407.241 74.472 407.657 73.128 408.489 71.912C409.353 70.696 410.569 69.736 412.137 69.032C413.737 68.328 415.609 67.976 417.753 67.976C420.921 67.976 423.449 68.776 425.337 70.376C427.225 71.944 428.265 74.072 428.457 76.76H422.025C421.929 75.704 421.481 74.872 420.681 74.264C419.913 73.624 418.873 73.304 417.561 73.304C416.345 73.304 415.401 73.528 414.729 73.976C414.089 74.424 413.769 75.048 413.769 75.848C413.769 76.744 414.217 77.432 415.113 77.912C416.009 78.36 417.401 78.824 419.289 79.304C421.209 79.784 422.793 80.28 424.041 80.792C425.289 81.304 426.361 82.104 427.257 83.192C428.185 84.248 428.665 85.656 428.697 87.416C428.697 88.952 428.265 90.328 427.401 91.544C426.569 92.76 425.353 93.72 423.753 94.424C422.185 95.096 420.345 95.432 418.233 95.432ZM434.405 81.704C434.405 78.952 434.965 76.552 436.085 74.504C437.205 72.424 438.757 70.824 440.741 69.704C442.725 68.552 444.997 67.976 447.557 67.976C450.853 67.976 453.573 68.808 455.717 70.472C457.893 72.104 459.349 74.408 460.085 77.384H452.837C452.453 76.232 451.797 75.336 450.869 74.696C449.973 74.024 448.853 73.688 447.509 73.688C445.589 73.688 444.069 74.392 442.949 75.8C441.829 77.176 441.269 79.144 441.269 81.704C441.269 84.232 441.829 86.2 442.949 87.608C444.069 88.984 445.589 89.672 447.509 89.672C450.229 89.672 452.005 88.456 452.837 86.024H460.085C459.349 88.904 457.893 91.192 455.717 92.888C453.541 94.584 450.821 95.432 447.557 95.432C444.997 95.432 442.725 94.872 440.741 93.752C438.757 92.6 437.205 91 436.085 88.952C434.965 86.872 434.405 84.456 434.405 81.704ZM491.648 81.128C491.648 82.088 491.584 82.952 491.456 83.72H472.016C472.176 85.64 472.848 87.144 474.032 88.232C475.216 89.32 476.672 89.864 478.4 89.864C480.896 89.864 482.672 88.792 483.728 86.648H490.976C490.208 89.208 488.736 91.32 486.56 92.984C484.384 94.616 481.712 95.432 478.544 95.432C475.984 95.432 473.68 94.872 471.632 93.752C469.616 92.6 468.032 90.984 466.88 88.904C465.76 86.824 465.2 84.424 465.2 81.704C465.2 78.952 465.76 76.536 466.88 74.456C468 72.376 469.568 70.776 471.584 69.656C473.6 68.536 475.92 67.976 478.544 67.976C481.072 67.976 483.328 68.52 485.312 69.608C487.328 70.696 488.88 72.248 489.968 74.264C491.088 76.248 491.648 78.536 491.648 81.128ZM484.688 79.208C484.656 77.48 484.032 76.104 482.816 75.08C481.6 74.024 480.112 73.496 478.352 73.496C476.688 73.496 475.28 74.008 474.128 75.032C473.008 76.024 472.32 77.416 472.064 79.208H484.688ZM505.193 72.536C506.057 71.128 507.177 70.024 508.553 69.224C509.961 68.424 511.561 68.024 513.353 68.024V75.08H511.577C509.465 75.08 507.865 75.576 506.777 76.568C505.721 77.56 505.193 79.288 505.193 81.752V95H498.473V68.408H505.193V72.536Z" fill="#2B2B2B"/>
<circle cx="46.6728" cy="17.1019" r="17.1019" fill="#7B6AF4"/>
<circle cx="46.6728" cy="85.5096" r="17.1019" fill="#7B6AF4"/>
<circle cx="17.1019" cy="68.3376" r="17.1019" fill="#7B6AF4"/>
<circle cx="76.3447" cy="34.1337" r="17.1019" fill="#7B6AF4"/>
<circle cx="76.3784" cy="68.279" r="17.1019" fill="#7B6AF4"/>
<circle cx="17.1357" cy="34.0752" r="17.1019" fill="#7B6AF4"/>
<circle cx="46.7419" cy="51.1378" r="31.1803" fill="#7B6AF4"/>
<circle cx="46.6474" cy="51.4212" r="17.1019" fill="#FF6016"/>
</svg>
