<svg width="112" height="112" viewBox="0 0 112 112" fill="none" xmlns="http://www.w3.org/2000/svg">
<path d="M35.5784 16.6403C39.4266 4.78374 51.2711 8.85069 51.7757 14.6343C52.2803 20.4178 51.7757 32.0199 51.7757 32.0199C48.5084 38.2491 44.8776 40.3823 35.5784 42.0501C34.518 44.1392 34.5963 45.3104 35.5784 47.3995C42.5483 50.5588 45.969 49.1533 51.7757 44.7248V79.496C45.9013 75.5831 43.175 75.3613 39.6277 79.496C38.6954 81.2258 38.6793 82.1073 39.6277 83.5081C46.3499 83.8586 49.2449 85.2837 51.7757 91.5322V99.5564C42.2521 104.879 38.3026 104.065 31.5292 96.8816C20.7761 92.1327 16.7256 86.4484 16.0067 72.8092C7.67264 60.9555 5.70777 53.9188 16.0067 39.3754C17.6669 26.2102 20.5413 20.2214 35.5784 16.6403Z" fill="#123D68"/>
<path d="M76.0397 16.6403C72.281 4.78374 60.7119 8.85069 60.219 14.6343C59.7262 20.4178 60.219 32.0199 60.219 32.0199C63.4104 38.2491 66.9568 40.3823 76.0397 42.0501C77.0755 44.1392 76.9989 45.3104 76.0397 47.3995C69.2319 50.5588 65.8907 49.1533 60.219 44.7248V79.496C65.9569 75.5831 68.6198 75.3613 72.0845 79.496C72.9952 81.2258 73.011 82.1073 72.0845 83.5081C65.5187 83.8586 62.691 85.2837 60.219 91.5322V99.5564C69.5212 104.879 73.3789 104.065 79.9948 96.8816C90.4978 92.1327 94.454 86.4484 95.1563 72.8092C103.296 60.9555 105.216 53.9188 95.1563 39.3754C93.5346 26.2102 90.7271 20.2214 76.0397 16.6403Z" fill="#FF583E"/>
</svg>
