<svg width="84" height="84" viewBox="0 0 84 84" fill="none" xmlns="http://www.w3.org/2000/svg">
<circle cx="42" cy="42" r="42" fill="#ffffff"/>
<path d="M26.691 12.713C29.542 3.84731 38.3171 6.88836 38.691 11.213C39.0648 15.5376 38.691 24.213 38.691 24.213C36.2703 28.8709 33.5804 30.466 26.691 31.713C25.9053 33.2751 25.9634 34.1509 26.691 35.713C31.8547 38.0753 34.389 37.0244 38.691 33.713V59.713C34.3388 56.7871 32.319 56.6212 29.691 59.713C29.0003 61.0064 28.9883 61.6655 29.691 62.713C34.6712 62.9751 36.816 64.0407 38.691 68.713V74.713C31.6353 78.693 28.7092 78.084 23.691 72.713C15.7244 69.162 12.7236 64.9116 12.191 54.713C6.0166 45.8494 4.56091 40.5877 12.191 29.713C13.421 19.8688 15.5505 15.3908 26.691 12.713Z" fill="#123D68"/>
<path d="M57.1661 12.713C54.3152 3.84731 45.54 6.88836 45.1661 11.213C44.7923 15.5376 45.1661 24.213 45.1661 24.213C47.5868 28.8709 50.2767 30.466 57.1661 31.713C57.9518 33.2751 57.8937 34.1509 57.1661 35.713C52.0024 38.0753 49.4681 37.0244 45.1661 33.713V59.713C49.5183 56.7871 51.5381 56.6212 54.1661 59.713C54.8569 61.0064 54.8688 61.6655 54.1661 62.713C49.1859 62.9751 47.0411 64.0407 45.1661 68.713V74.713C52.2219 78.693 55.1479 78.084 60.1661 72.713C68.1327 69.162 71.1335 64.9116 71.6661 54.713C77.8405 45.8494 79.2962 40.5877 71.6661 29.713C70.4361 19.8688 68.3066 15.3908 57.1661 12.713Z" fill="#FF583E"/>
</svg>
