<svg width="523" height="112" viewBox="0 0 523 112" fill="none" xmlns="http://www.w3.org/2000/svg">
<path d="M136.232 17.328V43.824C136.232 45.232 136.712 46.16 137.672 46.608C136.68 47.856 135.448 48.48 133.976 48.48C131.352 48.48 130.04 46.88 130.04 43.68V17.184C130.04 15.776 129.56 14.864 128.6 14.448C129.528 13.2 130.744 12.576 132.248 12.576C134.904 12.576 136.232 14.16 136.232 17.328ZM169.249 31.2V43.824C169.249 45.2 169.729 46.128 170.689 46.608C169.697 47.856 168.465 48.48 166.993 48.48C164.369 48.48 163.057 46.88 163.057 43.68V31.968C163.057 29.152 161.841 27.744 159.409 27.744C158.161 27.744 156.961 28.288 155.809 29.376C154.657 30.464 153.857 31.984 153.409 33.936V43.824C153.409 45.2 153.889 46.128 154.849 46.608C153.857 47.856 152.625 48.48 151.153 48.48C148.529 48.48 147.217 46.88 147.217 43.68V27.36C147.217 25.952 146.737 25.008 145.777 24.528C146.705 23.312 147.921 22.704 149.425 22.704C152.081 22.704 153.409 24.304 153.409 27.504V28.032C154.241 26.368 155.425 25.072 156.961 24.144C158.497 23.184 160.273 22.704 162.289 22.704C164.337 22.704 166.001 23.424 167.281 24.864C168.593 26.304 169.249 28.416 169.249 31.2ZM182.262 11.328C183.35 11.328 184.246 11.664 184.95 12.336C185.654 12.976 186.006 13.84 186.006 14.928C186.006 15.984 185.542 16.96 184.614 17.856C183.718 18.72 182.694 19.152 181.542 19.152C180.39 19.152 179.446 18.816 178.71 18.144C178.006 17.472 177.654 16.576 177.654 15.456C177.654 14.336 178.15 13.376 179.142 12.576C180.134 11.744 181.174 11.328 182.262 11.328ZM185.094 27.504V43.824C185.094 45.2 185.574 46.128 186.534 46.608C185.542 47.856 184.31 48.48 182.838 48.48C180.214 48.48 178.902 46.88 178.902 43.68V27.36C178.902 25.952 178.422 25.008 177.462 24.528C178.39 23.312 179.606 22.704 181.11 22.704C183.766 22.704 185.094 24.304 185.094 27.504ZM213.415 27.984C213.415 29.008 213.095 29.808 212.455 30.384C211.815 30.96 210.999 31.248 210.007 31.248C209.047 31.248 208.183 30.976 207.415 30.432C207.511 30.048 207.559 29.536 207.559 28.896C207.559 28.256 207.335 27.68 206.887 27.168C206.439 26.656 205.783 26.4 204.919 26.4C203.383 26.4 202.039 27.264 200.887 28.992C199.735 30.72 199.159 32.944 199.159 35.664C199.159 38.384 199.767 40.448 200.983 41.856C202.231 43.264 203.799 43.968 205.687 43.968C208.375 43.968 210.599 43.024 212.359 41.136C212.967 41.424 213.271 42.016 213.271 42.912C213.271 44.32 212.407 45.6 210.679 46.752C208.983 47.904 206.967 48.48 204.631 48.48C201.143 48.48 198.359 47.424 196.279 45.312C194.199 43.2 193.159 40.256 193.159 36.48C193.159 32.704 194.359 29.472 196.759 26.784C199.191 24.064 202.231 22.704 205.879 22.704C207.991 22.704 209.767 23.2 211.207 24.192C212.679 25.152 213.415 26.416 213.415 27.984ZM224.587 11.328C225.675 11.328 226.571 11.664 227.275 12.336C227.979 12.976 228.331 13.84 228.331 14.928C228.331 15.984 227.867 16.96 226.939 17.856C226.043 18.72 225.019 19.152 223.867 19.152C222.715 19.152 221.771 18.816 221.035 18.144C220.331 17.472 219.979 16.576 219.979 15.456C219.979 14.336 220.475 13.376 221.467 12.576C222.459 11.744 223.499 11.328 224.587 11.328ZM227.419 27.504V43.824C227.419 45.2 227.899 46.128 228.859 46.608C227.867 47.856 226.635 48.48 225.163 48.48C222.539 48.48 221.227 46.88 221.227 43.68V27.36C221.227 25.952 220.747 25.008 219.787 24.528C220.715 23.312 221.931 22.704 223.435 22.704C226.091 22.704 227.419 24.304 227.419 27.504ZM242.011 41.616C242.011 43.44 243.051 44.352 245.131 44.352C246.859 44.352 248.379 43.552 249.691 41.952V36.864C247.003 37.024 245.051 37.536 243.835 38.4C242.619 39.264 242.011 40.336 242.011 41.616ZM255.883 30.96V42.576C255.883 44.464 256.715 45.616 258.379 46.032C257.323 47.664 255.819 48.48 253.867 48.48C251.595 48.48 250.251 47.344 249.835 45.072C247.915 47.344 245.435 48.48 242.395 48.48C240.283 48.48 238.571 47.936 237.259 46.848C235.947 45.76 235.291 44.24 235.291 42.288C235.291 39.888 236.539 37.952 239.035 36.48C241.531 35.008 245.083 34.24 249.691 34.176V30.24C249.691 27.456 248.587 26.064 246.379 26.064C245.387 26.064 244.603 26.32 244.027 26.832C243.451 27.344 243.163 27.984 243.163 28.752C243.163 29.488 243.403 30.112 243.883 30.624C242.891 31.552 241.739 32.016 240.427 32.016C239.115 32.016 238.123 31.696 237.451 31.056C236.779 30.416 236.443 29.584 236.443 28.56C236.443 26.896 237.451 25.504 239.467 24.384C241.483 23.264 243.867 22.704 246.619 22.704C249.403 22.704 251.643 23.392 253.339 24.768C255.035 26.112 255.883 28.176 255.883 30.96ZM271.951 27.216V40.992C271.951 42.08 272.143 42.88 272.527 43.392C272.943 43.872 273.615 44.112 274.543 44.112C276.431 44.112 278.127 43.312 279.631 41.712C279.983 41.744 280.287 41.92 280.543 42.24C280.799 42.56 280.927 42.976 280.927 43.488C280.927 44.736 280.159 45.888 278.623 46.944C277.119 47.968 275.247 48.48 273.007 48.48C270.767 48.48 268.991 47.92 267.679 46.8C266.399 45.648 265.759 43.92 265.759 41.616V27.216C264.511 27.184 263.583 26.928 262.975 26.448C262.399 25.968 262.111 25.376 262.111 24.672C262.111 23.968 262.399 23.408 262.975 22.992C263.935 23.12 264.767 23.184 265.471 23.184H265.759V20.832C265.759 19.424 265.263 18.48 264.271 18C265.263 16.784 266.479 16.176 267.919 16.176C270.607 16.176 271.951 17.776 271.951 20.976V23.184H279.487C279.679 23.472 279.775 23.776 279.775 24.096C279.775 24.96 279.215 25.696 278.095 26.304C277.007 26.912 275.119 27.216 272.431 27.216H271.951ZM291.003 11.328C292.091 11.328 292.987 11.664 293.691 12.336C294.395 12.976 294.747 13.84 294.747 14.928C294.747 15.984 294.283 16.96 293.355 17.856C292.459 18.72 291.435 19.152 290.283 19.152C289.131 19.152 288.187 18.816 287.451 18.144C286.747 17.472 286.395 16.576 286.395 15.456C286.395 14.336 286.891 13.376 287.883 12.576C288.875 11.744 289.915 11.328 291.003 11.328ZM293.835 27.504V43.824C293.835 45.2 294.315 46.128 295.275 46.608C294.283 47.856 293.051 48.48 291.579 48.48C288.955 48.48 287.643 46.88 287.643 43.68V27.36C287.643 25.952 287.163 25.008 286.203 24.528C287.131 23.312 288.347 22.704 289.851 22.704C292.507 22.704 293.835 24.304 293.835 27.504ZM318.46 28.272C318.78 27.344 318.94 26.48 318.94 25.68C318.94 24.88 318.732 24.16 318.316 23.52C319.244 22.976 320.268 22.704 321.388 22.704C322.508 22.704 323.388 22.992 324.028 23.568C324.7 24.144 325.036 24.88 325.036 25.776C325.036 26.64 324.796 27.68 324.316 28.896L318.556 43.488C317.884 45.28 317.148 46.544 316.348 47.28C315.58 47.984 314.444 48.336 312.94 48.336C311.436 48.336 310.284 48 309.484 47.328C308.684 46.624 307.996 45.344 307.42 43.488L302.524 27.984C302.044 26.544 301.372 25.632 300.508 25.248C300.764 24.48 301.26 23.872 301.996 23.424C302.732 22.944 303.532 22.704 304.396 22.704C306.796 22.704 308.284 24.08 308.86 26.832L313.036 44.304L318.46 28.272ZM336.926 41.616C336.926 43.44 337.966 44.352 340.046 44.352C341.774 44.352 343.294 43.552 344.606 41.952V36.864C341.918 37.024 339.966 37.536 338.75 38.4C337.534 39.264 336.926 40.336 336.926 41.616ZM350.798 30.96V42.576C350.798 44.464 351.63 45.616 353.294 46.032C352.238 47.664 350.734 48.48 348.782 48.48C346.51 48.48 345.166 47.344 344.75 45.072C342.83 47.344 340.35 48.48 337.31 48.48C335.198 48.48 333.486 47.936 332.174 46.848C330.862 45.76 330.206 44.24 330.206 42.288C330.206 39.888 331.454 37.952 333.95 36.48C336.446 35.008 339.998 34.24 344.606 34.176V30.24C344.606 27.456 343.502 26.064 341.294 26.064C340.302 26.064 339.518 26.32 338.942 26.832C338.366 27.344 338.078 27.984 338.078 28.752C338.078 29.488 338.318 30.112 338.798 30.624C337.806 31.552 336.654 32.016 335.342 32.016C334.03 32.016 333.038 31.696 332.366 31.056C331.694 30.416 331.358 29.584 331.358 28.56C331.358 26.896 332.366 25.504 334.382 24.384C336.398 23.264 338.782 22.704 341.534 22.704C344.318 22.704 346.558 23.392 348.254 24.768C349.95 26.112 350.798 28.176 350.798 30.96ZM150.68 63.488C151.768 62.848 152.888 62.528 154.04 62.528C155.224 62.528 156.136 62.848 156.776 63.488C157.448 64.096 157.784 64.912 157.784 65.936C157.784 66.96 157.56 67.984 157.112 69.008L147.176 93.632C146.376 95.584 145.64 96.88 144.968 97.52C144.328 98.16 143.304 98.48 141.896 98.48C140.488 98.48 139.496 98.16 138.92 97.52C138.344 96.88 137.704 95.584 137 93.632L127.544 67.664C127 66.096 126.248 65.072 125.288 64.592C126.536 63.248 127.928 62.576 129.464 62.576C130.52 62.576 131.4 62.912 132.104 63.584C132.84 64.224 133.496 65.376 134.072 67.04L142.472 92.048L150.776 68.96C151.256 67.488 151.496 66.352 151.496 65.552C151.496 64.72 151.224 64.032 150.68 63.488ZM167.733 61.328C168.821 61.328 169.717 61.664 170.421 62.336C171.125 62.976 171.477 63.84 171.477 64.928C171.477 65.984 171.013 66.96 170.085 67.856C169.189 68.72 168.165 69.152 167.013 69.152C165.861 69.152 164.917 68.816 164.181 68.144C163.477 67.472 163.125 66.576 163.125 65.456C163.125 64.336 163.621 63.376 164.613 62.576C165.605 61.744 166.645 61.328 167.733 61.328ZM170.565 77.504V93.824C170.565 95.2 171.045 96.128 172.005 96.608C171.013 97.856 169.781 98.48 168.309 98.48C165.685 98.48 164.373 96.88 164.373 93.68V77.36C164.373 75.952 163.893 75.008 162.933 74.528C163.861 73.312 165.077 72.704 166.581 72.704C169.237 72.704 170.565 74.304 170.565 77.504ZM195.19 78.272C195.51 77.344 195.67 76.48 195.67 75.68C195.67 74.88 195.462 74.16 195.046 73.52C195.974 72.976 196.998 72.704 198.118 72.704C199.238 72.704 200.118 72.992 200.758 73.568C201.43 74.144 201.766 74.88 201.766 75.776C201.766 76.64 201.526 77.68 201.046 78.896L195.286 93.488C194.614 95.28 193.878 96.544 193.078 97.28C192.31 97.984 191.174 98.336 189.67 98.336C188.166 98.336 187.014 98 186.214 97.328C185.414 96.624 184.726 95.344 184.15 93.488L179.254 77.984C178.774 76.544 178.102 75.632 177.238 75.248C177.494 74.48 177.99 73.872 178.726 73.424C179.462 72.944 180.262 72.704 181.126 72.704C183.526 72.704 185.014 74.08 185.59 76.832L189.766 94.304L195.19 78.272ZM219.992 82.544C220.632 82.48 221.096 82.288 221.384 81.968C221.672 81.648 221.816 81.008 221.816 80.048C221.816 79.088 221.512 78.208 220.904 77.408C220.296 76.608 219.432 76.208 218.312 76.208C217.224 76.208 216.216 76.816 215.288 78.032C214.392 79.216 213.8 80.928 213.512 83.168L219.992 82.544ZM219.992 94.016C222.616 94.016 224.824 93.072 226.616 91.184C227.224 91.504 227.528 92.08 227.528 92.912C227.528 94.256 226.664 95.52 224.936 96.704C223.24 97.888 221.224 98.48 218.888 98.48C215.272 98.48 212.408 97.44 210.296 95.36C208.184 93.28 207.128 90.32 207.128 86.48C207.128 82.64 208.28 79.392 210.584 76.736C212.92 74.048 215.768 72.704 219.128 72.704C221.72 72.704 223.848 73.568 225.512 75.296C227.208 76.992 228.056 78.944 228.056 81.152C228.056 82.816 227.64 84.032 226.808 84.8C225.976 85.536 224.584 85.92 222.632 85.952L213.368 86.24C213.496 91.424 215.704 94.016 219.992 94.016ZM235.477 93.68V77.36C235.477 75.952 234.997 75.008 234.037 74.528C234.965 73.312 236.181 72.704 237.685 72.704C240.341 72.704 241.669 74.288 241.669 77.456C242.981 74.288 245.141 72.704 248.149 72.704C249.653 72.704 250.869 73.12 251.797 73.952C252.725 74.784 253.189 75.872 253.189 77.216C253.189 78.528 252.853 79.552 252.181 80.288C251.509 81.024 250.549 81.392 249.301 81.392C249.077 81.392 248.677 81.36 248.101 81.296C248.197 80.816 248.245 80.304 248.245 79.76C248.245 79.216 248.021 78.72 247.573 78.272C247.125 77.824 246.501 77.6 245.701 77.6C244.933 77.6 244.149 78 243.349 78.8C242.581 79.568 242.021 80.784 241.669 82.448V93.824C241.669 95.2 242.149 96.128 243.109 96.608C242.117 97.856 240.885 98.48 239.413 98.48C236.789 98.48 235.477 96.88 235.477 93.68ZM286.22 82.544C286.86 82.48 287.324 82.288 287.612 81.968C287.9 81.648 288.044 81.008 288.044 80.048C288.044 79.088 287.74 78.208 287.132 77.408C286.524 76.608 285.66 76.208 284.54 76.208C283.452 76.208 282.444 76.816 281.516 78.032C280.62 79.216 280.028 80.928 279.74 83.168L286.22 82.544ZM286.22 94.016C288.844 94.016 291.052 93.072 292.844 91.184C293.452 91.504 293.756 92.08 293.756 92.912C293.756 94.256 292.892 95.52 291.164 96.704C289.468 97.888 287.452 98.48 285.116 98.48C281.5 98.48 278.636 97.44 276.524 95.36C274.412 93.28 273.356 90.32 273.356 86.48C273.356 82.64 274.508 79.392 276.812 76.736C279.148 74.048 281.996 72.704 285.356 72.704C287.948 72.704 290.076 73.568 291.74 75.296C293.436 76.992 294.284 78.944 294.284 81.152C294.284 82.816 293.868 84.032 293.036 84.8C292.204 85.536 290.812 85.92 288.86 85.952L279.596 86.24C279.724 91.424 281.932 94.016 286.22 94.016ZM343.914 69.152C343.914 70.336 343.498 71.232 342.666 71.84C341.866 72.416 340.874 72.704 339.69 72.704C338.506 72.704 337.498 72.464 336.666 71.984C336.73 71.568 336.762 71.168 336.762 70.784C336.762 69.6 336.394 68.576 335.658 67.712C334.954 66.816 333.706 66.368 331.914 66.368C329.386 66.368 327.194 67.584 325.338 70.016C323.482 72.448 322.554 75.84 322.554 80.192C322.554 84.544 323.482 87.76 325.338 89.84C327.226 91.888 329.802 92.912 333.066 92.912C334.986 92.912 336.794 92.48 338.49 91.616C340.218 90.752 341.594 89.728 342.618 88.544C343.034 88.64 343.37 88.944 343.626 89.456C343.882 89.968 344.01 90.48 344.01 90.992C344.01 92.656 342.762 94.32 340.266 95.984C337.802 97.648 334.858 98.48 331.434 98.48C326.698 98.48 322.938 96.928 320.154 93.824C317.37 90.72 315.978 86.416 315.978 80.912C315.978 75.408 317.514 70.976 320.586 67.616C323.658 64.256 327.69 62.576 332.682 62.576C335.786 62.576 338.426 63.216 340.602 64.496C342.81 65.776 343.914 67.328 343.914 69.152ZM353.17 93.68V77.36C353.17 75.952 352.69 75.008 351.73 74.528C352.658 73.312 353.874 72.704 355.378 72.704C358.034 72.704 359.362 74.288 359.362 77.456C360.674 74.288 362.834 72.704 365.842 72.704C367.346 72.704 368.562 73.12 369.49 73.952C370.418 74.784 370.882 75.872 370.882 77.216C370.882 78.528 370.546 79.552 369.874 80.288C369.202 81.024 368.242 81.392 366.994 81.392C366.77 81.392 366.37 81.36 365.794 81.296C365.89 80.816 365.938 80.304 365.938 79.76C365.938 79.216 365.714 78.72 365.266 78.272C364.818 77.824 364.194 77.6 363.394 77.6C362.626 77.6 361.842 78 361.042 78.8C360.274 79.568 359.714 80.784 359.362 82.448V93.824C359.362 95.2 359.842 96.128 360.802 96.608C359.81 97.856 358.578 98.48 357.106 98.48C354.482 98.48 353.17 96.88 353.17 93.68ZM388.682 82.544C389.322 82.48 389.786 82.288 390.074 81.968C390.362 81.648 390.506 81.008 390.506 80.048C390.506 79.088 390.202 78.208 389.594 77.408C388.986 76.608 388.122 76.208 387.002 76.208C385.914 76.208 384.906 76.816 383.978 78.032C383.082 79.216 382.49 80.928 382.202 83.168L388.682 82.544ZM388.682 94.016C391.306 94.016 393.514 93.072 395.306 91.184C395.914 91.504 396.218 92.08 396.218 92.912C396.218 94.256 395.354 95.52 393.626 96.704C391.93 97.888 389.914 98.48 387.578 98.48C383.962 98.48 381.098 97.44 378.986 95.36C376.874 93.28 375.818 90.32 375.818 86.48C375.818 82.64 376.97 79.392 379.274 76.736C381.61 74.048 384.458 72.704 387.818 72.704C390.41 72.704 392.538 73.568 394.202 75.296C395.898 76.992 396.746 78.944 396.746 81.152C396.746 82.816 396.33 84.032 395.498 84.8C394.666 85.536 393.274 85.92 391.322 85.952L382.058 86.24C382.186 91.424 384.394 94.016 388.682 94.016ZM422.262 77.936C422.262 78.832 421.958 79.552 421.35 80.096C420.774 80.608 420.006 80.864 419.046 80.864C418.086 80.864 417.19 80.544 416.358 79.904C416.518 79.424 416.582 78.928 416.55 78.416C416.55 77.872 416.246 77.36 415.638 76.88C415.062 76.4 414.214 76.16 413.094 76.16C412.006 76.16 411.126 76.4 410.454 76.88C409.814 77.36 409.494 78 409.494 78.8C409.494 79.568 409.958 80.304 410.886 81.008C411.846 81.68 412.982 82.304 414.294 82.88C415.638 83.456 416.966 84.08 418.278 84.752C419.622 85.392 420.758 86.24 421.686 87.296C422.646 88.352 423.126 89.536 423.126 90.848C423.126 93.024 422.102 94.848 420.054 96.32C418.006 97.76 415.494 98.48 412.518 98.48C409.574 98.48 407.126 97.936 405.174 96.848C403.19 95.696 402.198 94.24 402.198 92.48C402.198 91.488 402.55 90.688 403.254 90.08C403.958 89.44 404.902 89.12 406.086 89.12C407.302 89.12 408.23 89.552 408.87 90.416C408.358 90.928 408.102 91.584 408.102 92.384C408.102 93.152 408.47 93.776 409.206 94.256C409.974 94.736 411.03 94.976 412.374 94.976C413.75 94.976 414.838 94.704 415.638 94.16C416.47 93.584 416.886 92.88 416.886 92.048C416.886 91.184 416.422 90.416 415.494 89.744C414.566 89.04 413.43 88.4 412.086 87.824C410.774 87.248 409.446 86.64 408.102 86C406.758 85.328 405.622 84.48 404.694 83.456C403.766 82.432 403.302 81.28 403.302 80C403.302 77.984 404.246 76.272 406.134 74.864C408.022 73.424 410.278 72.704 412.902 72.704C415.558 72.704 417.782 73.2 419.574 74.192C421.366 75.152 422.262 76.4 422.262 77.936ZM449.507 77.984C449.507 79.008 449.187 79.808 448.547 80.384C447.907 80.96 447.091 81.248 446.099 81.248C445.139 81.248 444.275 80.976 443.507 80.432C443.603 80.048 443.651 79.536 443.651 78.896C443.651 78.256 443.427 77.68 442.979 77.168C442.531 76.656 441.875 76.4 441.011 76.4C439.475 76.4 438.131 77.264 436.979 78.992C435.827 80.72 435.251 82.944 435.251 85.664C435.251 88.384 435.859 90.448 437.075 91.856C438.323 93.264 439.891 93.968 441.779 93.968C444.467 93.968 446.691 93.024 448.451 91.136C449.059 91.424 449.363 92.016 449.363 92.912C449.363 94.32 448.499 95.6 446.771 96.752C445.075 97.904 443.059 98.48 440.723 98.48C437.235 98.48 434.451 97.424 432.371 95.312C430.291 93.2 429.251 90.256 429.251 86.48C429.251 82.704 430.451 79.472 432.851 76.784C435.283 74.064 438.323 72.704 441.971 72.704C444.083 72.704 445.859 73.2 447.299 74.192C448.771 75.152 449.507 76.416 449.507 77.984ZM468.551 82.544C469.191 82.48 469.655 82.288 469.943 81.968C470.231 81.648 470.375 81.008 470.375 80.048C470.375 79.088 470.071 78.208 469.463 77.408C468.855 76.608 467.991 76.208 466.871 76.208C465.783 76.208 464.775 76.816 463.847 78.032C462.951 79.216 462.359 80.928 462.071 83.168L468.551 82.544ZM468.551 94.016C471.175 94.016 473.383 93.072 475.175 91.184C475.783 91.504 476.087 92.08 476.087 92.912C476.087 94.256 475.223 95.52 473.495 96.704C471.799 97.888 469.783 98.48 467.447 98.48C463.831 98.48 460.967 97.44 458.855 95.36C456.743 93.28 455.687 90.32 455.687 86.48C455.687 82.64 456.839 79.392 459.143 76.736C461.479 74.048 464.327 72.704 467.687 72.704C470.279 72.704 472.407 73.568 474.071 75.296C475.767 76.992 476.615 78.944 476.615 81.152C476.615 82.816 476.199 84.032 475.367 84.8C474.535 85.536 473.143 85.92 471.191 85.952L461.927 86.24C462.055 91.424 464.263 94.016 468.551 94.016ZM484.036 93.68V77.36C484.036 75.952 483.556 75.008 482.596 74.528C483.524 73.312 484.74 72.704 486.244 72.704C488.9 72.704 490.228 74.288 490.228 77.456C491.54 74.288 493.7 72.704 496.708 72.704C498.212 72.704 499.428 73.12 500.356 73.952C501.284 74.784 501.748 75.872 501.748 77.216C501.748 78.528 501.412 79.552 500.74 80.288C500.068 81.024 499.108 81.392 497.86 81.392C497.636 81.392 497.236 81.36 496.66 81.296C496.756 80.816 496.804 80.304 496.804 79.76C496.804 79.216 496.58 78.72 496.132 78.272C495.684 77.824 495.06 77.6 494.26 77.6C493.492 77.6 492.708 78 491.908 78.8C491.14 79.568 490.58 80.784 490.228 82.448V93.824C490.228 95.2 490.708 96.128 491.668 96.608C490.676 97.856 489.444 98.48 487.972 98.48C485.348 98.48 484.036 96.88 484.036 93.68Z" fill="#2B2B2B"/>
<path d="M35.5784 16.6403C39.4266 4.78374 51.2711 8.85069 51.7757 14.6343C52.2803 20.4178 51.7757 32.0199 51.7757 32.0199C48.5084 38.2491 44.8776 40.3823 35.5784 42.0501C34.518 44.1392 34.5963 45.3104 35.5784 47.3995C42.5483 50.5588 45.969 49.1533 51.7757 44.7248V79.496C45.9013 75.5831 43.175 75.3613 39.6277 79.496C38.6954 81.2258 38.6793 82.1073 39.6277 83.5081C46.3499 83.8586 49.2449 85.2837 51.7757 91.5322V99.5564C42.2521 104.879 38.3026 104.065 31.5292 96.8816C20.7761 92.1327 16.7256 86.4484 16.0067 72.8092C7.67264 60.9555 5.70777 53.9188 16.0067 39.3754C17.6669 26.2102 20.5413 20.2214 35.5784 16.6403Z" fill="#123D68"/>
<path d="M76.0397 16.6403C72.281 4.78374 60.7119 8.85069 60.219 14.6343C59.7262 20.4178 60.219 32.0199 60.219 32.0199C63.4104 38.2491 66.9568 40.3823 76.0397 42.0501C77.0755 44.1392 76.9989 45.3104 76.0397 47.3995C69.2319 50.5588 65.8907 49.1533 60.219 44.7248V79.496C65.9569 75.5831 68.6198 75.3613 72.0845 79.496C72.9952 81.2258 73.011 82.1073 72.0845 83.5081C65.5187 83.8586 62.691 85.2837 60.219 91.5322V99.5564C69.5212 104.879 73.3789 104.065 79.9948 96.8816C90.4978 92.1327 94.454 86.4484 95.1563 72.8092C103.296 60.9555 105.216 53.9188 95.1563 39.3754C93.5346 26.2102 90.7271 20.2214 76.0397 16.6403Z" fill="#FF583E"/>
</svg>
